<svg xmlns="http://www.w3.org/2000/svg" xmlns:xlink="http://www.w3.org/1999/xlink" version="1.1" id="Layer_1" x="0px" y="0px" width="100px" height="100px" viewBox="5.0 -10.0 100.0 135.0" enable-background="new 0 0 100 100" xml:space="preserve">
<circle cx="35.148" cy="24.359" r="2.219"/>
<circle cx="35.148" cy="74.709" r="2.219"/>
<circle cx="26.119" cy="64.762" r="1.913"/>
<circle cx="74.02" cy="18.391" r="1.913"/>
<circle cx="65.908" cy="80.83" r="1.913"/>
<circle cx="38.209" cy="84.35" r="1.913"/>
<circle cx="19.538" cy="35.991" r="1.913"/>
<circle cx="22.445" cy="54.049" r="1.913"/>
<circle cx="78.917" cy="47.315" r="1.913"/>
<circle cx="54.89" cy="78.381" r="1.913"/>
<circle cx="51.676" cy="21.758" r="1.913"/>
<circle cx="17.089" cy="51.753" r="2.219"/>
<circle cx="75.703" cy="64.455" r="2.219"/>
<circle cx="29.103" cy="23.211" r="1.683"/>
<circle cx="78.075" cy="42.8" r="1.377"/>
<circle cx="80.217" cy="74.326" r="1.377"/>
<circle cx="34.612" cy="80.142" r="1.377"/>
<circle cx="21.298" cy="63.308" r="1.377"/>
<circle cx="49.457" cy="16.325" r="1.377"/>
<circle cx="71.801" cy="23.211" r="1.684"/>
<circle cx="21.91" cy="49.228" r="1.683"/>
<circle cx="42.417" cy="78.917" r="3.52"/>
<circle cx="65.22" cy="24.283" r="3.52"/>
<circle cx="24.359" cy="68.664" r="1.224"/>
<circle cx="62.006" cy="82.284" r="1.225"/>
<circle cx="84.809" cy="63.919" r="1.224"/>
<circle cx="85.268" cy="31.628" r="1.224"/>
<circle cx="65.373" cy="18.467" r="1.224"/>
<circle cx="52.824" cy="17.549" r="1.224"/>
<circle cx="28.338" cy="30.557" r="1.224"/>
<circle cx="33.846" cy="83.814" r="1.224"/>
<circle cx="6.311" cy="32.547" r="0.918"/>
<circle cx="94.144" cy="56.88" r="0.653"/>
<circle cx="19.921" cy="6.296" r="0.653"/>
<circle cx="19.156" cy="91.313" r="0.653"/>
<circle cx="56.037" cy="81.825" r="0.652"/>
<circle cx="82.36" cy="53.166" r="0.653"/>
<circle cx="56.803" cy="12.305" r="0.653"/>
<circle cx="15.33" cy="56.38" r="0.653"/>
<circle cx="30.94" cy="74.744" r="0.653"/>
<circle cx="68.587" cy="91.926" r="0.652"/>
<circle cx="52.211" cy="14.03" r="0.918"/>
<circle cx="89.553" cy="69.888" r="0.918"/>
<circle cx="24.818" cy="71.878" r="0.918"/>
<circle cx="21.145" cy="31.628" r="0.918"/>
<circle cx="56.037" cy="17.702" r="0.918"/>
<circle cx="78.075" cy="52.136" r="0.918"/>
<circle cx="25.889" cy="77.233" r="0.918"/>
<circle cx="72.336" cy="30.021" r="2.984"/>
<circle cx="33.77" cy="14.871" r="1.607"/>
<circle cx="15.712" cy="34.459" r="1.071"/>
<circle cx="66.368" cy="87.411" r="1.071"/>
<circle cx="31.399" cy="27.803" r="1.607"/>
<circle cx="80.677" cy="63.919" r="1.607"/>
<circle cx="11.657" cy="55.196" r="1.607"/>
<circle cx="84.503" cy="38.056" r="1.147"/>
<circle cx="74.555" cy="34.842" r="1.148"/>
<circle cx="83.125" cy="67.286" r="1.147"/>
<circle cx="46.09" cy="89.323" r="1.148"/>
<circle cx="18.696" cy="56.114" r="1.147"/>
<circle cx="28.644" cy="18.62" r="1.148"/>
<circle cx="41.652" cy="12.346" r="1.147"/>
<circle cx="76.544" cy="38.668" r="1.607"/>
<circle cx="46.702" cy="21.987" r="1.607"/>
<circle cx="16.401" cy="74.785" r="1.071"/>
<circle cx="25.047" cy="34.613" r="2.525"/>
<circle cx="32.776" cy="19.539" r="1.836"/>
<circle cx="52.211" cy="82.743" r="1.836"/>
<circle cx="15.329" cy="44.178" r="1.837"/>
<circle cx="80.064" cy="35.761" r="1.837"/>
<circle cx="61.011" cy="77.311" r="2.525"/>
<circle cx="57.797" cy="22.216" r="2.526"/>
<circle cx="29.333" cy="70.117" r="2.984"/>
<circle cx="79.376" cy="57.874" r="2.984"/>
<circle cx="68.586" cy="74.633" r="3.52"/>
<circle cx="21.451" cy="42.342" r="3.52"/>
<circle cx="62.924" cy="13.417" r="1.53"/>
<circle cx="49.151" cy="78.764" r="1.53"/>
<circle cx="14.105" cy="21.069" r="1.531"/>
<circle cx="38.132" cy="92.537" r="1.53"/>
<circle cx="79.682" cy="40.045" r="0.842"/>
<circle cx="75.55" cy="25.507" r="0.842"/>
<circle cx="79.299" cy="68.052" r="1.684"/>
<circle cx="83.048" cy="70.348" r="0.842"/>
<circle cx="88.94" cy="49.84" r="0.842"/>
<circle cx="83.431" cy="60.4" r="0.842"/>
<circle cx="27.19" cy="26.731" r="0.842"/>
<circle cx="46.779" cy="7.989" r="0.842"/>
<circle cx="31.705" cy="77.692" r="0.841"/>
<circle cx="43.381" cy="85.977" r="2.219"/>
<circle cx="47.647" cy="82.57" r="1.378"/>
<circle cx="47.921" cy="86.361" r="0.842"/>
<circle cx="68.739" cy="88.252" r="0.842"/>
<circle cx="18.237" cy="47.238" r="0.841"/>
<circle cx="79.452" cy="12.958" r="1.683"/>
<circle cx="69.199" cy="18.927" r="1.607"/>
<circle cx="75.779" cy="10.969" r="0.842"/>
<circle cx="50.528" cy="50.008" r="22.726"/>
<text x="0.0" y="117.5" font-size="5.0" font-weight="bold" font-family="Helvetica Neue, Helvetica, Arial-Unicode, Arial, Sans-serif" fill="#000000">Created by Stephen Plaster</text><text x="0.0" y="122.5" font-size="5.0" font-weight="bold" font-family="Helvetica Neue, Helvetica, Arial-Unicode, Arial, Sans-serif" fill="#000000">from the Noun Project</text></svg>